<svg xmlns="http://www.w3.org/2000/svg" viewBox="0 0 48 48"><defs><style>.cls-1{fill:#42a5f5}.cls-2{fill:#424242}</style></defs><g id="Loading"><path class="cls-1" d="M20 6v4H10a2 2 0 0 1-2-2 2 2 0 0 1 2-2z"/><path class="cls-2" d="M38 5H10a3 3 0 0 0 0 6h28a3 3 0 0 0 0-6zm0 4H10a1 1 0 0 1 0-2h28a1 1 0 0 1 0 2zM47 31.75a.57.57 0 0 0 0-.14L42 20a5 5 0 0 0-4.6-3H10.64A5 5 0 0 0 6 20L1 31.58a.57.57 0 0 0 0 .14A3 3 0 0 0 0 34v6a3 3 0 0 0 3 3h42a3 3 0 0 0 3-3v-6a3 3 0 0 0-1-2.25zM7.88 20.82A3 3 0 0 1 10.64 19h26.72a3 3 0 0 1 2.76 1.82L44.48 31h-41zM46 40a1 1 0 0 1-1 1H3a1 1 0 0 1-1-1v-6a1 1 0 0 1 1-1h42a1 1 0 0 1 1 1z"/><rect class="cls-1" x="4" y="35" width="4" height="4" rx="1"/><rect class="cls-1" x="10" y="35" width="4" height="4" rx="1"/><path class="cls-1" d="M43 35a1 1 0 0 0-1 1v2a1 1 0 0 0 2 0v-2a1 1 0 0 0-1-1zM39 35a1 1 0 0 0-1 1v2a1 1 0 0 0 2 0v-2a1 1 0 0 0-1-1zM35 35a1 1 0 0 0-1 1v2a1 1 0 0 0 2 0v-2a1 1 0 0 0-1-1z"/></g></svg>